HIERARCHY
ROOT Hips
{
	OFFSET	0.00	0.00	0.00
	CHANNELS 6 Xposition Yposition Zposition Zrotation Xrotation Yrotation
	JOINT LeftHip
	{
		OFFSET	 3.430000	 0.000000	 0.000000
		CHANNELS 3 Zrotation Xrotation Yrotation
		JOINT LeftKnee
		{
			OFFSET	 0.000000	-18.469999	 0.000000
			CHANNELS 3 Zrotation Xrotation Yrotation
			JOINT LeftAnkle
			{
				OFFSET	 0.000000	-17.950001	 0.000000
				CHANNELS 3 Zrotation Xrotation Yrotation
				End Site 
				{
					OFFSET	 0.000000	-3.119996	 0.000000
				}
			}
		}
	}
	JOINT RightHip
	{
		OFFSET	-3.430000	 0.000000	 0.000000
		CHANNELS 3 Zrotation Xrotation Yrotation
		JOINT RightKnee
		{
			OFFSET	 0.000000	-18.809999	 0.000000
			CHANNELS 3 Zrotation Xrotation Yrotation
			JOINT RightAnkle
			{
				OFFSET	 0.000000	-17.570000	 0.000000
				CHANNELS 3 Zrotation Xrotation Yrotation
				End Site 
				{
					OFFSET	 0.000000	-3.250000	 0.000000
				}
			}
		}
	}
	JOINT Chest
	{
		OFFSET	 0.000000	 4.570000	 0.000000
		CHANNELS 3 Zrotation Xrotation Yrotation
		JOINT LeftCollar
		{
			OFFSET	 1.060000	 15.330000	 1.760000
			CHANNELS 3 Zrotation Xrotation Yrotation
			JOINT LeftShoulder
			{
				OFFSET	 5.810000	 0.000000	 0.000000
				CHANNELS 3 Zrotation Xrotation Yrotation
				JOINT LeftElbow
				{
					OFFSET	 0.000000	-12.080000	 0.000000
					CHANNELS 3 Zrotation Xrotation Yrotation
					JOINT LeftWrist
					{
						OFFSET	 0.000000	-9.820000	 0.000000
						CHANNELS 3 Zrotation Xrotation Yrotation
						End Site 
						{
							OFFSET	 0.000000	-7.369996	 0.000000
						}
					}
				}
			}
		}
		JOINT RightCollar
		{
			OFFSET	-1.060000	 15.330000	 1.760000
			CHANNELS 3 Zrotation Xrotation Yrotation
			JOINT RightShoulder
			{
				OFFSET	-6.060000	 0.000000	 0.000000
				CHANNELS 3 Zrotation Xrotation Yrotation
				JOINT RightElbow
				{
					OFFSET	 0.000000	-11.900000	 0.000000
					CHANNELS 3 Zrotation Xrotation Yrotation
					JOINT RightWrist
					{
						OFFSET	 0.000000	-9.520000	 0.000000
						CHANNELS 3 Zrotation Xrotation Yrotation
						End Site 
						{
							OFFSET	 0.000000	-7.140012	 0.000000
						}
					}
				}
			}
		}
		JOINT Neck
		{
			OFFSET	 0.000000	 17.620001	 0.000000
			CHANNELS 3 Zrotation Xrotation Yrotation
			JOINT Head
			{
				OFFSET	 0.000000	 5.190000	 0.000000
				CHANNELS 3 Zrotation Xrotation Yrotation
				End Site 
				{
					OFFSET	 0.000000	 4.140008	 0.000000
				}
			}
		}
	}
}

MOTION
Frames: 28
Frame Time: 0.033333
5.0853 -6.9032 -56.091 8.47106 -1.28257 13.8889 25.3378 -21.8726 16.7491 3.06927 42.3268 -2.71716 -14.2292 -17.0508 2.01804 -34.9874 -44.0396 -17.3807 -6.17275 33.1684 7.89183 21.2597 10.9115 4.89725 29.7294 47.6217 -27.2154 0 0 0 6.62286 -37.4552 -8.81647 -20.2685 -25.9372 -14.1922 37.9261 -22.0737 -50.8777 0 0 0 -35.9833 -14.4409 -54.7495 14.7284 -36.6333 7.96936 -15.5126 -8.50348 9.34291 0 0 0 -9.53592 -16.5204 -5.57962 
5.7984 -5.9263 -56.5104 8.40944 1.82587 9.56195 24.2966 -23.7803 16.7751 2.79876 41.2566 -2.73975 -14.565 -17.6514 2.27968 -33.4684 -46.4806 -18.0681 -6.91487 34.2983 8.72737 19.8087 9.74806 4.35185 29.085 46.5567 -25.578 0 0 0 11.7527 -36.8775 -3.53578 -20.6285 -27.0091 -14.3933 38.4029 -23.5408 -46.9419 0 0 0 -41.3911 -16.6041 -59.7419 21.0134 -43.1006 13.7317 -17.6991 -10.9204 19.348 0 0 0 -11.6885 -17.7926 -3.88415 
6.2279 -5.1454 -56.9524 8.47774 5.40614 5.82242 23.7479 -26.7046 16.5673 2.89382 40.2073 -3.02122 -16.5794 -18.2288 1.29079 -33.5227 -47.3914 -18.9955 -7.52892 37.5266 9.97151 17.8375 7.23865 0.829613 27.8781 45.523 -23.1403 0 0 0 16.4823 -35.7675 2.08582 -20.8901 -27.7466 -14.3038 39.1453 -24.5449 -42.2901 0 0 0 -47.074 -19.3979 -62.6925 26.1111 -46.7633 18.8202 -20.9221 -16.4674 28.809 0 0 0 -13.4187 -19.7286 -3.18312 
6.4991 -4.4673 -57.3466 8.74179 8.96791 2.22443 23.6425 -29.6803 17.0574 3.05507 39.4653 -3.25662 -19.0271 -18.4231 -0.525008 -34.9101 -46.8175 -21.4681 -8.98777 40.7036 10.8955 17.5296 3.43618 0.474353 25.9068 44.8594 -19.5788 0 0 0 20.4289 -34.3658 7.06661 -21.2032 -28.2322 -14.3599 39.8065 -24.9661 -38.3056 0 0 0 -52.9677 -23.5364 -64.0039 28.0998 -47.0392 21.507 -22.6769 -19.3642 37.4668 0 0 0 -14.6949 -21.9185 -3.37878 
6.6724 -4.0656 -57.6932 9.27504 11.7722 -1.29401 24.2115 -31.9906 18.1034 2.97327 38.7391 -3.73179 -21.829 -18.3226 -2.62297 -36.1588 -45.2391 -23.7503 -10.527 44.4326 11.0906 18.5953 -2.25871 2.46361 23.2169 44.5074 -15.0378 0 0 0 23.4838 -32.613 10.8014 -21.303 -28.4288 -14.3221 39.4806 -24.6895 -35.835 0 0 0 -58.4869 -28.1553 -63.7046 25.8647 -45.3465 19.9332 -23.9227 -19.1591 44.8796 0 0 0 -15.7665 -23.6357 -4.38639 
6.6899 -3.8722 -58.0422 9.90006 13.706 -4.28158 24.7117 -33.6572 17.9727 2.98348 38.3662 -3.28348 -24.9578 -18.0167 -4.92294 -36.7636 -42.7265 -26.7116 -13.0191 47.8304 12.8413 19.7202 -7.77814 4.57559 20.491 44.4633 -10.5408 0 0 0 25.7011 -30.9 13.4611 -21.2103 -28.1716 -14.0224 39.2836 -24.1861 -33.235 0 0 0 -62.8132 -32.316 -63.5257 22.1999 -41.2868 17.2291 -25.7493 -18.6898 48.2861 0 0 0 -16.6868 -25.0463 -5.88066 
6.4463 -3.8998 -58.3109 10.0708 14.0958 -6.06771 25.1263 -34.0898 15.9456 3.46295 38.1118 -3.80059 -27.7038 -18.1041 -5.58585 -36.2905 -38.9432 -28.8177 -15.6016 50.3505 14.8824 20.0623 -12.3706 6.91419 18.1617 45.1115 -6.5792 0 0 0 26.7583 -29.1228 14.4789 -20.4747 -27.4128 -13.4842 39.3058 -23.5867 -30.6167 0 0 0 -64.9421 -35.1425 -62.0938 17.1908 -36.5008 13.2206 -27.8713 -19.5503 47.4545 0 0 0 -17.108 -25.8855 -7.80817 
6.0923 -4.1108 -58.5344 9.98965 13.755 -7.41207 26.1439 -33.8805 14.8076 3.80188 38.2088 -3.59156 -28.7431 -17.1175 -4.6634 -35.9696 -35.9067 -27.9518 -15.2595 51.8937 14.6778 20.2074 -17.7326 7.84532 15.5981 45.9153 -3.24774 0 0 0 27.3729 -27.0245 15.5636 -19.7637 -26.5207 -12.9913 39.102 -22.6465 -28.5652 0 0 0 -65.5822 -37.3899 -60.8664 13.0331 -31.5852 9.90056 -29.1408 -20.7886 43.9057 0 0 0 -16.7363 -26.2349 -9.09392 
5.6528 -4.1911 -58.6926 9.87297 13.7438 -8.59965 27.5374 -34.004 15.1188 4.18754 38.7027 -3.49649 -27.2561 -15.3529 -1.03245 -35.1633 -32.8789 -26.8612 -13.6364 52.0509 13.2246 20.932 -22.8593 8.60278 12.828 46.0662 -0.428207 0 0 0 27.3726 -23.8915 16.4705 -19.1479 -25.6031 -12.5065 38.4363 -21.9423 -26.9066 0 0 0 -64.763 -38.7775 -59.8178 10.4105 -28.2492 7.65483 -30.1841 -21.442 39.3351 0 0 0 -16.1637 -26.3891 -9.71114 
5.2887 -4.2388 -58.7856 9.365 13.4097 -9.48338 28.8076 -33.8152 16.3454 4.34053 39.3487 -3.10781 -24.7523 -13.2113 1.99132 -33.5824 -31.0689 -27.0725 -12.1088 50.5154 11.4874 24.1481 -26.2026 12.9743 10.9989 46.2976 1.05053 0 0 0 26.8537 -20.7926 16.5084 -18.5597 -24.8351 -12.1426 37.916 -21.7187 -25.6109 0 0 0 -63.5059 -39.1626 -59.9366 9.70373 -27.1335 6.523 -28.4092 -18.5231 34.8781 0 0 0 -15.4799 -26.3386 -9.29789 
4.7688 -3.9927 -58.8182 8.17708 13.3538 -9.73952 30.0407 -34.2122 17.6582 4.26366 39.74 -2.66232 -23.118 -10.6404 3.70764 -31.4675 -30.4648 -27.5933 -10.5948 49.7665 10.3418 24.9757 -26.2981 15.9632 10.4998 46.4684 1.3165 0 0 0 25.8755 -17.4532 16.0061 -17.9469 -24.2742 -11.69 37.2281 -21.7266 -24.1841 0 0 0 -61.399 -38.8191 -61.2303 11.0771 -29.7569 7.28261 -26.5924 -16.5624 31.5341 0 0 0 -14.6211 -26.3551 -8.22894 
4.1586 -3.6412 -58.8508 6.50867 13.461 -9.2983 31.1776 -35.5993 18.4216 4.07435 40.0014 -2.22482 -23.4161 -8.38052 3.89 -29.7212 -30.5266 -29.4231 -10.4804 49.3085 11.3338 23.4273 -23.0184 16.0163 11.2471 46.5708 0.34344 0 0 0 24.0704 -14.2374 15.3213 -17.406 -23.88 -11.3157 36.4668 -22.2309 -22.6818 0 0 0 -59.6857 -38.202 -64.108 14.5102 -34.9094 10.0441 -23.7464 -15.0977 29.7645 0 0 0 -13.5615 -26.384 -6.57147 
3.5459 -3.272 -58.8157 4.77503 13.7603 -8.45627 32.4309 -38.0044 19.9913 3.81884 40.1003 -2.1917 -23.3771 -5.60245 3.7828 -28.8188 -30.2064 -30.3202 -8.93482 48.9649 10.5304 21.052 -20.8878 14.0832 12.5647 46.265 -1.27688 0 0 0 22.0868 -11.092 14.7768 -17.0554 -23.7225 -11.087 35.7127 -22.9413 -21.6256 0 0 0 -58.8355 -37.8292 -67.3344 19.0433 -40.5861 13.6251 -19.7279 -13.5535 30.4974 0 0 0 -12.5328 -26.1323 -4.68267 
2.913 -2.9581 -58.7906 3.35605 14.4819 -7.32894 33.9975 -41.7144 23.154 2.98328 40.1826 -1.17465 -22.7708 -1.23658 2.20391 -29.1856 -29.5424 -30.6497 -6.9929 47.5131 8.5791 20.2677 -19.6121 13.1099 13.5175 45.2314 -2.70368 0 0 0 20.2793 -8.63568 14.5679 -16.9841 -23.617 -10.9479 34.5805 -23.4471 -21.2192 0 0 0 -58.4858 -37.6229 -70.142 25.2252 -45.6388 18.9644 -15.793 -10.9604 33.5818 0 0 0 -11.7461 -25.5693 -2.91333 
2.3053 -2.702 -58.7403 1.66887 15.227 -6.1518 36.2783 -45.6332 27.9952 2.79474 40.1663 -1.23497 -22.7305 2.972 -0.671503 -30.1884 -28.8966 -31.3371 -5.42127 45.6418 7.09441 21.0326 -17.0332 13.1324 14.1516 44.4069 -2.98027 0 0 0 18.8377 -6.87029 14.1886 -17.0625 -23.6854 -10.8459 33.4889 -23.7587 -20.4226 0 0 0 -58.9553 -37.5219 -71.9402 30.5753 -49.4929 23.2974 -11.723 -7.6818 37.7479 0 0 0 -11.2314 -25.233 -1.9361 
1.675 -2.7095 -58.7403 -0.347251 15.3642 -4.86968 38.4893 -49.1321 32.344 2.80837 39.8649 -1.17649 -23.808 6.29578 -5.80795 -31.6006 -27.8034 -33.2053 -4.17487 44.3667 6.0649 22.2159 -15.0936 13.8755 14.5024 44.2848 -1.9473 0 0 0 18.0791 -6.54232 13.7221 -17.2563 -24.0435 -10.9728 32.6356 -23.401 -18.7631 0 0 0 -60.3408 -37.9689 -73.3727 33.5421 -51.3491 25.7367 -7.61567 -3.84889 41.7861 0 0 0 -10.5454 -25.1435 -1.88651 
1.0196 -2.8728 -58.7403 -2.50693 15.1092 -3.63519 41.6575 -52.3419 37.1872 2.98542 39.8239 -1.29715 -24.191 9.52053 -11.0535 -33.1562 -26.1563 -36.4089 -4.1117 43.6347 5.89439 23.4951 -13.1236 15.2006 14.5221 44.4784 -0.199155 0 0 0 17.5709 -6.74875 13.7109 -17.6628 -24.6756 -11.1874 31.6438 -22.5129 -16.6471 0 0 0 -60.3536 -39.21 -73.1696 35.1977 -52.1525 27.359 -5.02066 -1.1861 45.8894 0 0 0 -9.87118 -25.269 -1.96034 
0.3842 -3.6186 -58.788 -4.16643 13.1743 -2.67451 43.274 -54.0742 37.8589 2.89556 40.2026 -1.4289 -24.6465 11.1387 -13.3795 -34.6444 -23.1713 -38.5846 -4.97815 43.6556 6.31847 24.2048 -13.5182 16.0234 13.7796 45.969 2.16516 0 0 0 17.4396 -7.69783 13.9344 -18.1559 -25.4748 -11.3123 30.6395 -20.8011 -14.4176 0 0 0 -57.9416 -41.9067 -69.8475 32.7872 -49.5093 25.9086 -3.93279 0.354374 46.9379 0 0 0 -9.16838 -25.2607 -2.26852 
-0.2561 -4.6833 -58.7956 -5.05102 10.4795 -2.26437 42.9158 -54.7451 36.4738 2.9268 40.7996 -1.72204 -23.7383 12.5276 -13.5535 -35.4111 -19.5928 -38.8354 -4.75034 43.9784 5.96336 24.6694 -16.132 16.5386 11.3182 48.2409 5.95508 0 0 0 17.9108 -9.44426 14.292 -18.6269 -26.237 -11.254 29.14 -18.1193 -11.9053 0 0 0 -53.2876 -46.2605 -62.4833 26.5409 -45.3944 21.198 -3.47254 1.13847 46.9307 0 0 0 -8.50947 -25.4078 -3.1331 
-0.8613 -5.7757 -58.8106 -5.76708 7.65277 -2.08425 41.6974 -54.7766 33.9357 3.05462 41.5705 -2.05863 -23.0732 13.3845 -13.4061 -35.7501 -16.2915 -39.0146 -4.83761 44.6963 5.99252 26.3317 -17.9077 18.6838 8.05535 50.7393 10.4645 0 0 0 18.446 -11.5256 14.5902 -19.0178 -27.0029 -11.0417 27.3132 -15.3181 -9.80904 0 0 0 -46.7777 -49.7563 -52.8015 21.1613 -39.888 17.4413 -4.05655 0.751156 46.4119 0 0 0 -7.90681 -25.8719 -4.26783 
-1.4891 -6.8781 -58.8207 -6.317 4.67449 -1.88743 39.6901 -54.2017 29.7802 3.53488 42.4672 -2.78253 -23.141 13.3706 -12.7934 -35.2298 -13.287 -38.5475 -4.82282 47.2201 6.46827 27.0076 -20.4068 19.4539 3.26118 53.2653 16.209 0 0 0 18.7053 -13.9341 15.721 -19.395 -27.8685 -10.7325 24.8514 -12.3512 -8.06814 0 0 0 -36.9412 -51.4806 -40.3045 16.0484 -34.3789 13.3994 -7.40316 -1.20537 45.5635 0 0 0 -6.83862 -26.5628 -5.1062 
-2.2048 -7.8926 -58.8659 -6.74104 1.67173 -1.35284 37.3532 -53.2225 24.1387 3.89028 43.1781 -2.98625 -23.0716 12.8473 -11.8679 -33.8234 -10.4064 -38.1503 -5.67186 49.8884 7.17887 26.5937 -23.6417 19.1625 -2.11835 55.3177 21.5667 0 0 0 19.1185 -16.1006 18.2113 -20.2758 -29.1223 -10.7647 -0.436763 -18.5914 -0.860191 0 0 0 -26.3834 -51.4016 -27.3648 12.2596 -29.0093 10.5039 -12.3243 -4.07073 44.0534 0 0 0 -5.34289 -27.1437 -5.18249 
-3.0862 -8.558 -58.9588 -7.1641 -0.865317 -0.239279 35.4724 -52.2356 17.567 4.06904 43.5127 -3.16807 -22.5003 12.1822 -9.93471 -31.5396 -7.96634 -37.2752 -7.22959 51.8758 8.13398 25.3971 -26.2154 17.5928 -6.65178 57.0434 25.3513 0 0 0 19.5877 -17.7871 21.7935 -21.5484 -30.9782 -10.8705 -52.2387 -16.6226 -2.49566 0 0 0 -17.2059 -50.0493 -15.4106 9.37097 -23.9852 8.5737 -17.5337 -7.56591 42.1308 0 0 0 -3.6507 -27.5009 -4.63748 
-4.0254 -8.9573 -59.0768 -7.46729 -2.80789 1.29933 33.6417 -51.0861 10.1354 3.94386 42.5494 -3.15617 -22.3609 12.0562 -6.20294 -29.1882 -5.92453 -34.9639 -7.33777 53.0603 7.91814 23.1484 -29.2874 14.3042 -10.9077 58.1727 28.3135 0 0 0 20.51 -19.5215 27.0772 -23.1708 -33.3796 -11.1486 -103.684 -14.6485 -4.39234 0 0 0 -11.5541 -48.0582 -6.38397 7.61765 -20.341 7.41196 -21.625 -10.144 39.3876 0 0 0 -1.5075 -27.4664 -3.87606 
-4.9771 -8.8092 -59.1948 -7.73552 -2.78367 3.59294 31.5112 -52.3437 5.01511 4.13715 40.7401 -3.20841 -21.3659 14.0261 -2.44824 -26.5509 -5.83667 -33.2658 -6.45948 53.1204 7.34256 19.5076 -31.892 8.91481 -14.2839 57.9702 30.2228 0 0 0 21.8527 -22.016 33.7342 -26.0188 -36.1087 -12.6538 -155.916 -12.8595 -7.73874 0 0 0 -9.50279 -46.4947 -1.80472 6.90024 -20.0942 6.45622 -24.5432 -11.5677 37.4267 0 0 0 0.875489 -27.7381 -3.26584 
-6.0444 -8.1638 -59.4108 -8.50285 -1.45163 7.10223 28.0558 -55.2457 0.702571 4.49292 39.1989 -3.06308 -20.1417 16.5015 0.272629 -23.4668 -7.04867 -33.3793 -6.07568 52.4989 6.7552 15.5528 -33.2928 3.33886 -15.0994 57.3059 29.6115 0 0 0 23.9074 -24.1292 40.7278 -29.8871 -39.9607 -15.9093 151.711 -11.1293 -11.1063 0 0 0 -10.0026 -45.161 -2.73326 8.11416 -22.2369 7.40162 -28.3652 -13.02 34.1036 0 0 0 3.30762 -28.4962 -2.81292 
-7.3225 -7.423 -59.6745 -9.40485 0.221373 11.4223 22.6659 -57.8479 -2.70456 5.78593 37.7905 -3.42193 -18.1797 18.224 0.747074 -20.4582 -8.79004 -33.6543 -5.61713 51.508 5.9327 11.778 -34.19 -2.04165 -14.7648 56.5822 27.8727 0 0 0 26.0969 -25.8446 47.779 -35.8504 -44.5733 -21.2308 99.7206 -9.39433 -14.8146 0 0 0 -11.6273 -43.5499 -5.49786 9.60585 -25.9296 8.13173 -32.0243 -13.7579 29.6106 0 0 0 5.50514 -29.3879 -2.73473 
-8.5605 -6.3959 -59.9859 -10.3849 2.64063 15.7986 17.2293 -60.1323 -4.95727 6.99989 36.9148 -3.76657 -15.7135 19.0446 0.397561 -18.3152 -11.3432 -34.6871 -5.35584 49.9102 5.75983 9.15739 -34.08 -6.35879 -13.5559 55.5557 25.0586 0 0 0 28.5086 -27.491 54.4201 -44.8553 -48.8888 -29.0866 48.8907 -8.24113 -19.6763 0 0 0 -14.7536 -42.4052 -10.0243 12.1475 -29.8835 9.99123 -32.9022 -13.6759 24.6672 0 0 0 7.26902 -30.4325 -3.01198 
